<svg width="109" height="16" viewBox="0 0 109 16" fill="none" xmlns="http://www.w3.org/2000/svg">
<path d="M8.25758 0L10.8092 5.16924L16.5152 6.00326L12.3864 10.0247L13.3608 15.7059L8.25758 13.0222L3.15439 15.7059L4.12879 10.0247L0 6.00326L5.70599 5.16924L8.25758 0Z" fill="#032752"/>
<path d="M31.3787 -6.10352e-05L33.9303 5.16918L39.6362 6.0032L35.5075 10.0246L36.4819 15.7058L31.3787 13.0221L26.2755 15.7058L27.2499 10.0246L23.1211 6.0032L28.8271 5.16918L31.3787 -6.10352e-05Z" fill="#032752"/>
<path d="M54.4998 -6.10352e-05L57.0514 5.16918L62.7573 6.0032L58.6286 10.0246L59.6029 15.7058L54.4998 13.0221L49.3966 15.7058L50.371 10.0246L46.2422 6.0032L51.9482 5.16918L54.4998 -6.10352e-05Z" fill="#032752"/>
<path d="M77.2576 0L79.8092 5.16924L85.5152 6.00326L81.3864 10.0247L82.3608 15.7059L77.2576 13.0222L72.1544 15.7059L73.1288 10.0247L69 6.00326L74.706 5.16924L77.2576 0Z" fill="#032752"/>
<path d="M100.742 -6.10352e-05L103.294 5.16918L109 6.0032L104.871 10.0246L105.845 15.7058L100.742 13.0221L95.6388 15.7058L96.6132 10.0246L92.4844 6.0032L98.1904 5.16918L100.742 -6.10352e-05Z" fill="#E6E9EE"/>
</svg>
