<svg width="108" height="41" viewBox="0 0 108 41" fill="none" xmlns="http://www.w3.org/2000/svg">
<path d="M60.1189 26.8937V26.4114C60.1746 26.4602 60.2408 26.5037 60.3174 26.5437C60.394 26.582 60.4758 26.6151 60.5611 26.643C60.6464 26.6691 60.7318 26.69 60.8188 26.7056C60.9041 26.7196 60.9842 26.7283 61.0573 26.7283C61.3098 26.7283 61.4978 26.6813 61.6214 26.589C61.745 26.495 61.8077 26.3609 61.8077 26.1851C61.8077 26.0911 61.7868 26.0092 61.745 25.9396C61.7032 25.87 61.6458 25.8056 61.5726 25.7481C61.4995 25.6907 61.4125 25.6349 61.3132 25.5827C61.214 25.5305 61.1061 25.4748 60.9912 25.4156C60.8693 25.3546 60.7561 25.292 60.6499 25.2275C60.5437 25.1649 60.4532 25.0952 60.3749 25.0186C60.2965 24.942 60.2356 24.8567 60.1903 24.7592C60.145 24.6617 60.1242 24.5486 60.1242 24.4197C60.1242 24.2613 60.159 24.122 60.2286 24.0036C60.2983 23.8853 60.3905 23.7895 60.5037 23.7129C60.6168 23.6363 60.7474 23.5806 60.8919 23.5423C61.0364 23.5057 61.1861 23.4866 61.3359 23.4866C61.6806 23.4866 61.9313 23.5284 62.088 23.6102V24.0698C61.8825 23.927 61.6162 23.8557 61.2941 23.8557C61.2053 23.8557 61.1148 23.8644 61.026 23.8835C60.9372 23.9027 60.8571 23.9323 60.7875 23.974C60.7178 24.0158 60.6604 24.0715 60.6168 24.1377C60.5733 24.2039 60.5507 24.2857 60.5507 24.3814C60.5507 24.4702 60.5681 24.5486 60.6012 24.613C60.6343 24.6774 60.683 24.7366 60.7492 24.7906C60.8153 24.8445 60.8937 24.8968 60.9859 24.9473C61.0799 24.9977 61.1861 25.0535 61.308 25.1126C61.4334 25.1736 61.5518 25.2397 61.6632 25.3076C61.7746 25.3755 61.8738 25.4521 61.9574 25.534C62.0427 25.6175 62.1089 25.7081 62.1576 25.809C62.2081 25.91 62.2325 26.0249 62.2325 26.1555C62.2325 26.3278 62.1994 26.4741 62.1315 26.5925C62.0636 26.7126 61.9731 26.8084 61.8582 26.8832C61.7433 26.9581 61.6109 27.0121 61.463 27.0451C61.3132 27.0782 61.1566 27.0956 60.9912 27.0956C60.9355 27.0956 60.8675 27.0904 60.7875 27.0817C60.7056 27.073 60.6238 27.0591 60.5385 27.0434C60.4549 27.026 60.3749 27.0051 60.2983 26.9807C60.2234 26.9563 60.1625 26.9285 60.1172 26.8971L60.1189 26.8937Z" fill="white"/>
<path d="M64.3387 27.0939C63.8442 27.0939 63.4473 26.9303 63.1496 26.6047C62.8519 26.2791 62.7021 25.8543 62.7021 25.3303C62.7021 24.768 62.8536 24.3205 63.1583 23.9863C63.463 23.652 63.8756 23.4849 64.3979 23.4849C64.8801 23.4849 65.2683 23.6468 65.5643 23.9723C65.8585 24.2979 66.0065 24.721 66.0065 25.2467C66.0065 25.816 65.8551 26.2669 65.5539 26.5995C65.2527 26.932 64.847 27.0956 64.3404 27.0956L64.3387 27.0939ZM64.3683 23.8539C64.0009 23.8539 63.7032 23.9863 63.4751 24.2509C63.2453 24.5155 63.1322 24.8637 63.1322 25.2937C63.1322 25.7238 63.2436 26.0702 63.4664 26.3331C63.6893 26.596 63.9818 26.7266 64.3404 26.7266C64.7234 26.7266 65.0264 26.6012 65.2475 26.3523C65.4686 26.1033 65.5782 25.7516 65.5782 25.3024C65.5782 24.8533 65.4703 24.4842 65.2562 24.2335C65.042 23.9828 64.7461 23.8557 64.37 23.8557L64.3683 23.8539Z" fill="white"/>
<path d="M68.5057 27.0346H66.6934V23.5422H67.1025V26.6656H68.5057V27.0364V27.0346Z" fill="white"/>
<path d="M71.4999 25.6227C71.4999 26.6029 71.0577 27.0938 70.1733 27.0938C69.2888 27.0938 68.9023 26.622 68.9023 25.6784V23.5422H69.3115V25.6523C69.3115 26.3678 69.6127 26.7265 70.2185 26.7265C70.8244 26.7265 71.0925 26.38 71.0925 25.6889V23.5422H71.5016V25.6227H71.4999Z" fill="white"/>
<path d="M74.7478 26.8885C74.4902 27.0243 74.1681 27.0939 73.7833 27.0939C73.2872 27.0939 72.8885 26.9338 72.589 26.6134C72.2896 26.2931 72.1416 25.8735 72.1416 25.3547C72.1416 24.7959 72.3087 24.3449 72.6465 24.0002C72.9825 23.6555 73.409 23.4832 73.9261 23.4832C74.2569 23.4832 74.532 23.5319 74.7496 23.6277V24.0629C74.4989 23.9236 74.2238 23.854 73.9209 23.854C73.5205 23.854 73.1949 23.988 72.9459 24.2561C72.697 24.5243 72.5716 24.8829 72.5716 25.3303C72.5716 25.7778 72.6883 26.0946 72.9216 26.3471C73.1549 26.5995 73.4595 26.7266 73.8391 26.7266C74.189 26.7266 74.4937 26.6483 74.7496 26.4933V26.8902L74.7478 26.8885ZM74.2517 27.658C74.2517 27.9435 74.0288 28.0863 73.5814 28.0863C73.5205 28.0863 73.4665 28.0863 73.423 28.0811V27.8617C73.4926 27.8722 73.5501 27.8756 73.5936 27.8756C73.8234 27.8756 73.9365 27.8025 73.9365 27.6563C73.9365 27.5292 73.8321 27.4665 73.6232 27.4665C73.6075 27.4665 73.5727 27.47 73.5239 27.477V27.033H73.7868V27.2872C73.9296 27.2872 74.0427 27.3203 74.1263 27.3847C74.2099 27.4491 74.2517 27.5414 74.2517 27.658Z" fill="white"/>
<path d="M76.7332 27.094C76.2388 27.094 75.8418 26.9303 75.5441 26.6047C75.2464 26.2792 75.0967 25.8544 75.0967 25.3303C75.0967 24.768 75.2481 24.3206 75.5528 23.9863C75.8557 23.652 76.2701 23.4849 76.7924 23.4849C77.2746 23.4849 77.6629 23.6468 77.9588 23.9724C78.2531 24.2979 78.4011 24.721 78.4011 25.2468C78.4011 25.8161 78.2496 26.267 77.9484 26.5995C77.6472 26.932 77.2416 27.0957 76.7349 27.0957L76.7332 27.094ZM76.7628 23.854C76.3955 23.854 76.0977 23.9863 75.8697 24.2509C75.6399 24.5156 75.5267 24.8638 75.5267 25.2938C75.5267 25.7238 75.6381 26.0703 75.861 26.3331C76.0838 26.596 76.3763 26.7266 76.7349 26.7266C77.118 26.7266 77.4209 26.6013 77.642 26.3523C77.8631 26.1033 77.9728 25.7517 77.9728 25.3025C77.9728 24.8533 77.8648 24.4842 77.6507 24.2335C77.4366 23.9828 77.1406 23.8557 76.7645 23.8557L76.7628 23.854ZM77.5549 22.6458C77.5549 22.8164 77.5166 22.9556 77.4383 23.0636C77.3599 23.1715 77.2555 23.2255 77.1214 23.2255C77.0065 23.2255 76.8742 23.1837 76.7262 23.0984C76.6009 23.0288 76.5051 22.9939 76.4355 22.9939C76.2927 22.9939 76.2213 23.0862 76.2213 23.269H75.9915C75.9915 23.0949 76.0298 22.9556 76.1082 22.8512C76.1865 22.7467 76.2945 22.6945 76.4355 22.6945C76.5417 22.6945 76.6618 22.7363 76.7976 22.8216C76.9177 22.893 77.0222 22.9295 77.1092 22.9295C77.245 22.9295 77.3129 22.8355 77.3129 22.6475H77.5515L77.5549 22.6458Z" fill="white"/>
<path d="M80.9376 27.0346H79.0869V23.5422H80.861V23.9131H79.4978V25.0743H80.76V25.4416H79.4978V26.6638H80.9393V27.0346H80.9376Z" fill="white"/>
<path d="M81.448 26.8937V26.4114C81.5037 26.4602 81.5699 26.5037 81.6465 26.5437C81.7231 26.582 81.8049 26.6151 81.8902 26.643C81.9755 26.6691 82.0609 26.69 82.1479 26.7056C82.2332 26.7196 82.3133 26.7283 82.3864 26.7283C82.6389 26.7283 82.8269 26.6813 82.9505 26.589C83.0741 26.495 83.1368 26.3609 83.1368 26.1851C83.1368 26.0911 83.1159 26.0092 83.0741 25.9396C83.0323 25.87 82.9749 25.8056 82.9017 25.7481C82.8286 25.6907 82.7416 25.6349 82.6423 25.5827C82.5431 25.5305 82.4352 25.4748 82.3203 25.4156C82.1984 25.3546 82.0852 25.292 81.979 25.2275C81.8728 25.1649 81.7823 25.0952 81.704 25.0186C81.6256 24.942 81.5647 24.8567 81.5194 24.7592C81.4741 24.6617 81.4533 24.5486 81.4533 24.4197C81.4533 24.2613 81.4881 24.122 81.5577 24.0036C81.6273 23.8853 81.7196 23.7895 81.8328 23.7129C81.9459 23.6363 82.0765 23.5806 82.221 23.5423C82.3655 23.5057 82.5152 23.4866 82.665 23.4866C83.0097 23.4866 83.2604 23.5284 83.4171 23.6102V24.0698C83.2116 23.927 82.9453 23.8557 82.6232 23.8557C82.5344 23.8557 82.4439 23.8644 82.3551 23.8835C82.2663 23.9027 82.1862 23.9323 82.1166 23.974C82.0469 24.0158 81.9895 24.0715 81.9459 24.1377C81.9024 24.2039 81.8798 24.2857 81.8798 24.3814C81.8798 24.4702 81.8972 24.5486 81.9303 24.613C81.9634 24.6774 82.0121 24.7366 82.0783 24.7906C82.1444 24.8445 82.2228 24.8968 82.315 24.9473C82.409 24.9977 82.5152 25.0535 82.6371 25.1126C82.7625 25.1736 82.8809 25.2397 82.9923 25.3076C83.1037 25.3755 83.2029 25.4521 83.2865 25.534C83.3718 25.6175 83.438 25.7081 83.4867 25.809C83.5372 25.91 83.5616 26.0249 83.5616 26.1555C83.5616 26.3278 83.5285 26.4741 83.4606 26.5925C83.3927 26.7126 83.3022 26.8084 83.1873 26.8832C83.0724 26.9581 82.94 27.0121 82.7921 27.0451C82.6423 27.0782 82.4857 27.0956 82.3203 27.0956C82.2645 27.0956 82.1967 27.0904 82.1166 27.0817C82.0347 27.073 81.9529 27.0591 81.8676 27.0434C81.784 27.026 81.704 27.0051 81.6274 26.9807C81.5525 26.9563 81.4916 26.9285 81.4463 26.8971L81.448 26.8937Z" fill="white"/>
<path d="M87.4786 27.0346H85.6279V23.5422H87.402V23.9131H86.0388V25.0743H87.301V25.4416H86.0388V26.6638H87.4803V27.0346H87.4786Z" fill="white"/>
<path d="M91.7122 27.0346H91.3048V24.6913C91.3048 24.5067 91.317 24.2787 91.3397 24.0123H91.3292C91.2909 24.1707 91.2561 24.2822 91.2247 24.3518L90.0304 27.0364H89.8302L88.6394 24.3709C88.6046 24.2926 88.5698 24.1742 88.5349 24.0123H88.5245C88.5367 24.1516 88.5436 24.3796 88.5436 24.6965V27.0346H88.1484V23.5422H88.6899L89.7623 25.9779C89.8459 26.1641 89.8981 26.3052 89.9225 26.3974H89.9364C90.0061 26.2059 90.0618 26.0632 90.1053 25.9692L91.1986 23.5422H91.7105V27.0346H91.7122Z" fill="white"/>
<path d="M63.7436 32.9471C63.3432 33.1787 62.8453 33.2936 62.2499 33.2936C61.5901 33.2936 61.0695 33.1108 60.6882 32.7452C60.307 32.3796 60.1172 31.8764 60.1172 31.2357C60.1172 30.5951 60.3244 30.0658 60.7405 29.6584C61.1566 29.251 61.7102 29.0491 62.3996 29.0491C62.8349 29.0491 63.2179 29.1083 63.5504 29.2301V30.0971C63.2335 29.9143 62.847 29.8221 62.3892 29.8221C62.0062 29.8221 61.6928 29.9457 61.4525 30.1946C61.2105 30.4436 61.0904 30.7761 61.0904 31.1922C61.0904 31.6083 61.1983 31.9391 61.416 32.1706C61.6318 32.4022 61.9243 32.5171 62.2934 32.5171C62.5145 32.5171 62.6904 32.4858 62.8192 32.4231V31.6222H61.9974V30.8841H63.7436V32.9471Z" fill="white"/>
<path d="M67.003 33.2221H64.543V29.1187H66.909V29.8708H65.4674V30.783H66.8097V31.5334H65.4674V32.4718H67.0047V33.2221H67.003Z" fill="white"/>
<path d="M67.4707 33.0637V32.148C67.6361 32.2873 67.8172 32.3917 68.0122 32.4614C68.2072 32.531 68.4039 32.5658 68.6024 32.5658C68.719 32.5658 68.82 32.5554 68.9071 32.5345C68.9941 32.5136 69.0655 32.484 69.1247 32.4474C69.1821 32.4109 69.2257 32.3673 69.2552 32.3151C69.2848 32.2646 69.2988 32.2089 69.2988 32.1515C69.2988 32.0714 69.2761 32 69.2309 31.9373C69.1856 31.8746 69.1229 31.8155 69.0429 31.7632C68.9628 31.7093 68.8688 31.6588 68.7608 31.6083C68.6529 31.5578 68.5345 31.5073 68.4091 31.4568C68.0888 31.3228 67.8503 31.1608 67.6919 30.9676C67.5352 30.7743 67.4551 30.5428 67.4551 30.2695C67.4551 30.0553 67.4986 29.8725 67.5839 29.7193C67.6692 29.5661 67.7859 29.439 67.9338 29.3398C68.0818 29.2405 68.2524 29.1674 68.4474 29.1204C68.6424 29.0734 68.8479 29.0508 69.0655 29.0508C69.2831 29.0508 69.4677 29.063 69.633 29.0891C69.7984 29.1152 69.9499 29.1552 70.0892 29.2075V30.0623C70.0213 30.0153 69.9447 29.9718 69.8646 29.9369C69.7828 29.9004 69.6992 29.8708 69.6139 29.8464C69.5286 29.822 69.4433 29.8046 69.358 29.7942C69.2727 29.782 69.1926 29.7768 69.116 29.7768C69.0115 29.7768 68.9158 29.7872 68.8305 29.8064C68.7451 29.8273 68.672 29.8551 68.6128 29.8917C68.5536 29.9282 68.5084 29.9718 68.4753 30.0222C68.4422 30.0727 68.4265 30.1302 68.4265 30.1929C68.4265 30.2608 68.444 30.3234 68.4805 30.3774C68.5171 30.4314 68.5676 30.4836 68.6355 30.5324C68.7016 30.5811 68.7834 30.6281 68.8792 30.6751C68.975 30.7221 69.0829 30.7691 69.203 30.8196C69.3667 30.8875 69.5147 30.9606 69.6452 31.039C69.7758 31.1156 69.8872 31.2044 69.9812 31.3001C70.0753 31.3959 70.1466 31.509 70.1954 31.6344C70.2459 31.7597 70.2702 31.9042 70.2702 32.0714C70.2702 32.2994 70.2267 32.4927 70.1397 32.6476C70.0526 32.8026 69.936 32.9297 69.7862 33.0254C69.6383 33.1212 69.4642 33.1908 69.2674 33.2326C69.0707 33.2744 68.8618 33.2953 68.6424 33.2953C68.4231 33.2953 68.2037 33.2761 68 33.2378C67.7963 33.1995 67.6205 33.1421 67.4725 33.0655L67.4707 33.0637Z" fill="white"/>
<path d="M73.8273 29.8708H72.6573V33.2221H71.7311V29.8708H70.5664V29.1187H73.829V29.8708H73.8273Z" fill="white"/>
<path d="M77.6354 33.2223H76.6274L76.3349 32.31H74.876L74.587 33.2223H73.5859L75.0797 29.1188H76.1748L77.6337 33.2223H77.6354ZM76.6396 27.8479C76.6396 28.1143 76.5874 28.3214 76.4812 28.4677C76.375 28.6139 76.2305 28.6871 76.0477 28.6871C75.884 28.6871 75.7239 28.6453 75.5672 28.5634C75.3965 28.4747 75.2799 28.4294 75.2155 28.4294C75.0623 28.4294 74.9857 28.5321 74.9857 28.7375H74.5818C74.5818 28.4729 74.634 28.2657 74.7385 28.1195C74.8429 27.9733 74.9909 27.8984 75.1789 27.8984C75.3339 27.8984 75.494 27.9454 75.6594 28.0394C75.8109 28.123 75.9241 28.1648 76.0024 28.1648C76.1504 28.1648 76.2253 28.0586 76.2253 27.8479H76.6379H76.6396ZM76.1243 31.5997L75.6838 30.2209C75.6507 30.1181 75.6281 29.9945 75.6159 29.8518H75.5933C75.5846 29.9719 75.5602 30.092 75.5219 30.2087L75.0762 31.5997H76.126H76.1243Z" fill="white"/>
<path d="M79.8813 33.2936C79.2929 33.2936 78.8158 33.1021 78.445 32.7191C78.0759 32.336 77.8896 31.8381 77.8896 31.2236C77.8896 30.5742 78.0777 30.0501 78.4537 29.6497C78.8298 29.2493 79.3277 29.0491 79.9475 29.0491C80.5324 29.0491 81.006 29.2406 81.3681 29.6236C81.7302 30.0066 81.9113 30.5132 81.9113 31.14C81.9113 31.7667 81.7233 32.3047 81.349 32.6999C80.9747 33.0951 80.4854 33.2918 79.8831 33.2918L79.8813 33.2936ZM79.9214 29.8464C79.5975 29.8464 79.3399 29.9683 79.1484 30.2103C78.9569 30.454 78.8629 30.7761 78.8629 31.1765C78.8629 31.577 78.9586 31.9043 79.1484 32.1411C79.3381 32.3778 79.5888 32.4962 79.8987 32.4962C80.2086 32.4962 80.4698 32.3813 80.6578 32.1515C80.8441 31.9217 80.9381 31.6031 80.9381 31.194C80.9381 30.7848 80.8476 30.4384 80.6665 30.2016C80.4854 29.9648 80.2382 29.8464 79.9231 29.8464H79.9214Z" fill="white"/>
<path d="M85.1315 31.8085V33.2221H84.207V29.1187H85.6555C86.6897 29.1187 87.2067 29.5539 87.2067 30.4261C87.2067 30.8387 87.0588 31.1713 86.761 31.4254C86.4651 31.6796 86.0681 31.8067 85.572 31.8067H85.1315V31.8085ZM85.1315 29.829V31.1086H85.4954C85.9881 31.1086 86.2335 30.8927 86.2335 30.4627C86.2335 30.0327 85.9881 29.8307 85.4954 29.8307H85.1315V29.829Z" fill="white"/>
<path d="M91.152 31.4447C91.152 32.6773 90.5774 33.2936 89.4301 33.2936C88.2828 33.2936 87.7588 32.6912 87.7588 31.4882V29.1187H88.6867V31.4986C88.6867 32.162 88.9461 32.4945 89.4649 32.4945C89.9838 32.4945 90.2292 32.1741 90.2292 31.5335V29.1187H91.1537V31.4447H91.152ZM90.4503 27.813L89.5555 28.7374H88.9026L89.646 27.813H90.4503Z" fill="white"/>
<path d="M92.0457 33.2221V29.1187H93.5394C93.9973 29.1187 94.349 29.2022 94.5962 29.3711C94.8417 29.5382 94.9653 29.775 94.9653 30.0814C94.9653 30.3025 94.8904 30.4958 94.7407 30.6629C94.591 30.8283 94.3995 30.9449 94.1662 31.0094V31.0215C94.4587 31.0581 94.692 31.166 94.8661 31.3454C95.0402 31.5247 95.1272 31.7423 95.1272 32C95.1272 32.376 94.9932 32.6737 94.7233 32.8948C94.4535 33.1159 94.0879 33.2256 93.6213 33.2256H92.0439L92.0457 33.2221ZM92.9701 29.7994V30.7726H93.3758C93.5673 30.7726 93.717 30.7256 93.8267 30.6333C93.9364 30.541 93.9921 30.4139 93.9921 30.252C93.9921 29.9508 93.7675 29.7994 93.3166 29.7994H92.9701ZM92.9701 31.4585V32.5397H93.4715C93.6857 32.5397 93.8528 32.4909 93.973 32.3917C94.0948 32.2925 94.154 32.1567 94.154 31.986C94.154 31.8154 94.0948 31.6936 93.9747 31.5995C93.8563 31.5055 93.6892 31.4603 93.475 31.4603H92.9684L92.9701 31.4585Z" fill="white"/>
<path d="M98.2461 33.2221H95.8018V29.1187H96.7262V32.4718H98.2461V33.2221Z" fill="white"/>
<path d="M99.7233 33.2221H98.7988V29.1187H99.7233V33.2221Z" fill="white"/>
<path d="M103.596 33.076C103.297 33.2205 102.905 33.2936 102.423 33.2936C101.793 33.2936 101.298 33.109 100.938 32.7382C100.578 32.3674 100.396 31.8747 100.396 31.2584C100.396 30.602 100.598 30.0693 101.004 29.6619C101.41 29.2545 101.936 29.0491 102.581 29.0491C102.982 29.0491 103.32 29.0996 103.595 29.2005V30.0902C103.32 29.9265 103.006 29.8447 102.656 29.8447C102.272 29.8447 101.96 29.9666 101.723 30.2086C101.486 30.4506 101.368 30.7796 101.368 31.1922C101.368 31.6048 101.479 31.9043 101.702 32.1411C101.925 32.3761 102.226 32.4945 102.604 32.4945C102.982 32.4945 103.295 32.4074 103.595 32.2316V33.076H103.596Z" fill="white"/>
<path d="M107.922 33.2221H106.914L106.621 32.3099H105.162L104.873 33.2221H103.872L105.366 29.1187H106.461L107.92 33.2221H107.922ZM106.41 31.5995L105.97 30.2207C105.937 30.118 105.914 29.9944 105.902 29.8516H105.879C105.871 29.9717 105.846 30.0919 105.808 30.2085L105.362 31.5995H106.412H106.41Z" fill="white"/>
<path d="M54.3125 9.13574H53.8721V40.9208H54.3125V9.13574Z" fill="#26B0EF"/>
<path d="M4.23523 21.7996C4.23523 22.6109 4.5016 23.0148 5.03434 23.0148H10.7691C12.1306 23.0148 13.2901 23.4953 14.2441 24.4546C15.2016 25.4174 15.6787 26.5734 15.6787 27.9261V28.2865C15.6787 29.6392 15.2017 30.7952 14.2476 31.7563C13.2935 32.7138 12.1393 33.1961 10.7813 33.1961H1.40092V29.1239H10.7813C11.0042 29.1239 11.1974 29.0421 11.3611 28.8749C11.5247 28.7113 11.6065 28.5146 11.6065 28.29C11.6065 27.4874 11.3315 27.087 10.7813 27.087H5.06046C3.7199 27.087 2.56912 26.6064 1.60636 25.6437C0.643596 24.6809 0.163086 23.5214 0.163086 22.1635V21.8031C0.163086 20.4451 0.643596 19.2856 1.60636 18.3246C2.56912 17.3619 3.7199 16.8813 5.06046 16.8813H14.467V20.9535H5.03434C4.82891 20.9535 4.64262 21.0353 4.48071 21.2025C4.31706 21.3696 4.23523 21.5715 4.23523 21.7996Z" fill="white"/>
<path d="M23.9346 16.9075H31.6924V20.9796H23.9171C22.8639 20.9796 21.9934 21.3922 21.297 22.2122C20.5971 23.0322 20.2489 23.9863 20.2489 25.0779C20.2489 26.1695 20.5971 27.0974 21.297 27.9174C21.9934 28.7374 22.8691 29.15 23.9224 29.15H27.6202V27.1131H23.8057V23.0409H31.6924V33.2222H23.9346C21.7531 33.2222 19.9146 32.4144 18.4191 30.7987C16.9236 29.1831 16.1768 27.2767 16.1768 25.0779C16.1768 22.879 16.9236 20.9674 18.4191 19.3431C19.9146 17.7205 21.7531 16.9075 23.9346 16.9075Z" fill="white"/>
<path d="M42.1561 25.6611C42.7411 25.6611 43.2338 25.4226 43.6272 24.9421C44.0207 24.4616 44.2209 23.9289 44.2209 23.3491C44.2209 22.7694 44.0224 22.2105 43.6272 21.73C43.2338 21.2495 42.7393 21.011 42.1561 21.011H37.156V25.6611H42.1561ZM42.1683 16.9058C43.9006 16.9058 45.3717 17.5464 46.5851 18.8278C47.7446 20.0918 48.3261 21.5994 48.3261 23.3474C48.3261 25.0953 47.7464 26.5769 46.5904 27.8408C45.3821 29.1222 43.911 29.7629 42.1822 29.7629H37.156V33.2187H33.0508V16.9075H42.17L42.1683 16.9058Z" fill="white"/>
<path fill-rule="evenodd" clip-rule="evenodd" d="M8.38469 2.93953C9.37704 2.66097 10.3259 2.3946 11.2277 2.14216C11.7813 2.44509 12.3524 2.75847 12.946 3.08403C12.0338 3.37651 11.0641 3.68641 10.0473 4.01197C9.46932 3.63766 8.91743 3.28076 8.38469 2.93779V2.93953ZM14.3893 1.256C15.1118 1.05231 15.8082 0.857319 16.4733 0.671034C17.0252 0.911289 17.5945 1.15677 18.1846 1.41269C17.5266 1.62161 16.8371 1.84271 16.1181 2.07252C15.521 1.79048 14.9464 1.51889 14.3893 1.256ZM18.5868 0.0791016C18.0001 0.242753 17.396 0.411628 16.7692 0.589208C17.3194 0.825981 17.8887 1.06972 18.4771 1.32042C19.0952 1.12369 19.6906 0.933922 20.2651 0.751119C19.6871 0.519569 19.13 0.296724 18.5886 0.0791016L18.5868 0.0791016ZM12.2357 5.45872C13.2803 5.06526 14.264 4.69095 15.1884 4.34101C14.5077 3.95626 13.8514 3.58891 13.2246 3.23898C12.3106 3.53842 11.3391 3.85528 10.3189 4.18955C10.9317 4.58997 11.5707 5.01303 12.2357 5.45872ZM18.0227 3.27205C17.255 3.5628 16.4489 3.86573 15.5923 4.18781C14.9099 3.81176 14.2535 3.45138 13.625 3.1084C14.4781 2.82985 15.2842 2.56696 16.0572 2.31626C16.6874 2.62093 17.3403 2.93953 18.021 3.27205H18.0227ZM18.3587 3.14496C19.0691 2.87685 19.7498 2.62093 20.3957 2.37719C19.7272 2.08471 19.0795 1.80267 18.458 1.53108C17.8016 1.74522 17.1139 1.96806 16.3949 2.20309C17.0234 2.50254 17.678 2.81592 18.357 3.14322L18.3587 3.14496ZM2.8623 9.46471C4.60676 8.77703 6.21891 8.14331 7.69874 7.56356C8.35857 8.17465 9.05148 8.82403 9.78791 9.51868C8.22974 10.2412 6.51836 11.0368 4.64855 11.9073C4.00961 11.0333 3.41768 10.222 2.8623 9.46471ZM12.0494 5.86611C10.8969 6.31528 9.6643 6.79405 8.33768 7.3146C9.00447 7.90654 9.70783 8.53677 10.453 9.20879C11.8353 8.56985 13.1045 7.98488 14.2849 7.43995C13.5032 6.88284 12.7598 6.35881 12.0477 5.86437L12.0494 5.86611ZM12.5526 5.67112C13.5972 5.26547 14.5826 4.88246 15.5088 4.52382C16.2348 4.93817 16.9903 5.37341 17.7825 5.83651C16.8545 6.26131 15.8587 6.71919 14.7967 7.20492C14.0098 6.66348 13.2646 6.15337 12.5508 5.67112H12.5526ZM18.3431 3.42874C17.5753 3.72471 16.7692 4.03634 15.9144 4.36713C16.6404 4.77278 17.3977 5.19932 18.1899 5.65023C19.0412 5.26025 19.8421 4.89465 20.6029 4.54993C19.8177 4.15821 19.0656 3.78564 18.3431 3.42874ZM18.6791 3.29991C19.3911 3.02658 20.0684 2.76543 20.7125 2.51647C21.4211 2.82811 22.1576 3.15193 22.9253 3.49142C22.2951 3.77694 21.6318 4.07987 20.9337 4.39847C20.1502 4.01371 19.4016 3.64811 18.6808 3.29991H18.6791ZM17.3246 9.6597C16.1216 10.3526 14.8228 11.0995 13.3935 11.9247C12.4795 11.0699 11.6159 10.269 10.8081 9.53261C12.1992 8.87104 13.4736 8.26866 14.6574 7.70632C15.5001 8.31219 16.3897 8.96505 17.3246 9.65796V9.6597ZM17.8417 9.36199C18.9089 8.75091 19.9065 8.17813 20.8292 7.64887C19.896 7.0848 19.0047 6.5538 18.1603 6.05414C17.2323 6.49112 16.233 6.96119 15.171 7.46259C16.0119 8.05278 16.905 8.68649 17.8434 9.36025L17.8417 9.36199ZM23.5956 6.06981C22.8557 6.49112 22.0705 6.93855 21.2331 7.4208C20.3017 6.87066 19.412 6.35184 18.5659 5.86437C19.4155 5.46395 20.2146 5.08963 20.9737 4.73448C21.8059 5.15405 22.6816 5.59974 23.5973 6.06981H23.5956ZM23.9159 5.887C24.5932 5.50225 25.2321 5.13664 25.838 4.79367C24.9518 4.39499 24.0987 4.01545 23.2857 3.65159C22.659 3.94407 21.9974 4.25397 21.301 4.57953C22.1332 4.99214 23.0054 5.42738 23.9159 5.887ZM27.7043 3.73515C27.1959 4.02416 26.6632 4.3236 26.1044 4.6422C25.2217 4.25222 24.3721 3.87791 23.5625 3.52276C24.1458 3.24942 24.6994 2.99176 25.2356 2.7428C26.0243 3.05966 26.8495 3.39044 27.7061 3.73341L27.7043 3.73515ZM17.772 9.99397C16.569 10.7095 15.2668 11.4842 13.8322 12.3391C14.8437 13.3001 15.9231 14.3394 17.0931 15.4798C18.5381 14.3882 19.8421 13.4045 21.0381 12.5027C19.8786 11.5974 18.794 10.767 17.772 9.99397ZM18.2891 9.68582C19.3563 9.05384 20.3522 8.46365 21.2714 7.91872C22.2829 8.54025 23.3449 9.20182 24.4731 9.91737C23.5765 10.5911 22.5998 11.3241 21.55 12.1162C20.3922 11.2422 19.3111 10.4362 18.2874 9.68756L18.2891 9.68582ZM24.0274 6.29265C23.2892 6.72615 22.511 7.18751 21.6718 7.68195C22.6781 8.28607 23.7366 8.92849 24.8613 9.62314C25.6709 9.01554 26.4212 8.45146 27.1263 7.92221C26.0399 7.34246 25.0093 6.80276 24.0274 6.29091V6.29265ZM24.3477 6.10463C25.0197 5.70942 25.6569 5.33337 26.2558 4.98169C27.2047 5.41172 28.197 5.86089 29.2433 6.33966C28.6775 6.76271 28.0734 7.21363 27.4327 7.6924C26.3498 7.12832 25.3244 6.6008 24.3494 6.10288L24.3477 6.10463ZM31.3726 10.2516C30.7284 10.9376 30.0407 11.6723 29.2956 12.4696C27.915 11.5643 26.6145 10.7269 25.394 9.95567C26.1966 9.32717 26.9418 8.74395 27.6416 8.19902C28.8151 8.83448 30.0599 9.51868 31.3726 10.2516Z" fill="#26B0EF"/>
</svg>
